<svg width="24" height="24" viewBox="0 0 24 24" fill="none" xmlns="http://www.w3.org/2000/svg">
<g clip-path="url(#clip0_538_16536)">
<path d="M5 11.25C4.58579 11.25 4.25 11.5858 4.25 12C4.25 12.4142 4.58579 12.75 5 12.75V11.25ZM19 12L19.5303 12.5303C19.8232 12.2374 19.8232 11.7626 19.5303 11.4697L19 12ZM12.5303 4.46967C12.2374 4.17678 11.7626 4.17678 11.4697 4.46967C11.1768 4.76256 11.1768 5.23744 11.4697 5.53033L12.5303 4.46967ZM11.4697 18.4697C11.1768 18.7626 11.1768 19.2374 11.4697 19.5303C11.7626 19.8232 12.2374 19.8232 12.5303 19.5303L11.4697 18.4697ZM5 12.75H19V11.25H5V12.75ZM11.4697 5.53033L18.4697 12.5303L19.5303 11.4697L12.5303 4.46967L11.4697 5.53033ZM18.4697 11.4697L11.4697 18.4697L12.5303 19.5303L19.5303 12.5303L18.4697 11.4697Z" fill="#111111"/>
</g>
<defs>
<clipPath id="clip0_538_16536">
<rect width="24" height="24" fill="white"/>
</clipPath>
</defs>
</svg>
