<svg width="24" height="24" viewBox="0 0 24 24" fill="currentColor" xmlns="http://www.w3.org/2000/svg">
<g clip-path="url(#clip0_468_10701)">
<g clip-path="url(#clip1_468_10701)">
<path d="M19.4 15L20.0862 15.3028L20.0894 15.2954L19.4 15ZM19.73 16.82L19.1938 17.3445L19.1997 17.3503L19.73 16.82ZM19.79 16.88L19.2597 17.4103L19.26 17.4106L19.79 16.88ZM19.79 19.71L19.26 19.1794L19.2594 19.18L19.79 19.71ZM16.96 19.71L17.4906 19.18L17.4903 19.1797L16.96 19.71ZM16.9 19.65L17.4304 19.1196L17.4244 19.1139L16.9 19.65ZM15.08 19.32L15.3755 20.0094L15.3828 20.0061L15.08 19.32ZM14.08 20.83L13.33 20.827V20.83H14.08ZM10.08 20.91H10.83C10.83 20.9042 10.8299 20.8983 10.8298 20.8925L10.08 20.91ZM9 19.4L8.69718 20.0861C8.71163 20.0925 8.72628 20.0984 8.74111 20.1039L9 19.4ZM7.18 19.73L6.65552 19.1938L6.64966 19.1997L7.18 19.73ZM7.12 19.79L6.58966 19.2597L6.58938 19.26L7.12 19.79ZM4.29 19.79L4.82063 19.26L4.82003 19.2594L4.29 19.79ZM3.70343 18.375H4.45343H3.70343ZM4.29 16.96L4.82003 17.4906L4.82033 17.4903L4.29 16.96ZM4.35 16.9L4.88036 17.4304L4.88615 17.4244L4.35 16.9ZM4.68 15.08L3.99061 15.3755L3.99385 15.3828L4.68 15.08ZM3.17 14.08L3.17299 13.33H3.17V14.08ZM1 12.08H0.25H1ZM3 10.08V10.83V10.08ZM3.09 10.08V10.83C3.09585 10.83 3.10169 10.8299 3.10754 10.8298L3.09 10.08ZM4.6 9L3.91385 8.69718C3.90747 8.71163 3.90155 8.72628 3.8961 8.74111L4.6 9ZM4.27 7.18L4.80618 6.65552L4.80033 6.64967L4.27 7.18ZM4.21 7.12L4.74033 6.58967L4.74004 6.58938L4.21 7.12ZM4.21 4.29L4.74004 4.82063L4.74063 4.82003L4.21 4.29ZM7.04 4.29L6.50938 4.82003L6.50967 4.82033L7.04 4.29ZM7.1 4.35L6.56964 4.88036L6.57555 4.88615L7.1 4.35ZM8.92 4.68V3.93C8.81572 3.93 8.71258 3.95175 8.61718 3.99385L8.92 4.68ZM9 4.68V5.43C9.10157 5.43 9.20209 5.40937 9.29545 5.36935L9 4.68ZM10 3.17L10.75 3.17299V3.17H10ZM12 1V0.25V1ZM14 3.09H13.25L13.25 3.09299L14 3.09ZM15 4.6L15.3028 3.91381L15.2954 3.91065L15 4.6ZM16.82 4.27L17.3445 4.80618L17.3503 4.80033L16.82 4.27ZM16.88 4.21L17.4103 4.74033L17.4106 4.74004L16.88 4.21ZM18.295 3.62343V4.37343V3.62343ZM19.71 4.21L19.1794 4.74004L19.18 4.74063L19.71 4.21ZM19.71 7.04L19.18 6.50938L19.1797 6.50967L19.71 7.04ZM19.65 7.1L19.1196 6.56964L19.1139 6.57555L19.65 7.1ZM19.32 8.92H20.07C20.07 8.81572 20.0483 8.71258 20.0061 8.61718L19.32 8.92ZM19.32 9H18.57C18.57 9.10157 18.5906 9.20209 18.6306 9.29545L19.32 9ZM20.83 10L20.827 10.75H20.83V10ZM20.91 14V13.25L20.907 13.25L20.91 14ZM14.25 12C14.25 13.2426 13.2426 14.25 12 14.25V15.75C14.0711 15.75 15.75 14.0711 15.75 12H14.25ZM12 14.25C10.7574 14.25 9.75 13.2426 9.75 12H8.25C8.25 14.0711 9.92893 15.75 12 15.75V14.25ZM9.75 12C9.75 10.7574 10.7574 9.75 12 9.75V8.25C9.92893 8.25 8.25 9.92893 8.25 12H9.75ZM12 9.75C13.2426 9.75 14.25 10.7574 14.25 12H15.75C15.75 9.92893 14.0711 8.25 12 8.25V9.75ZM18.7139 14.6972C18.5202 15.1359 18.4625 15.6225 18.548 16.0944L20.024 15.8268C19.9919 15.6498 20.0135 15.4673 20.0861 15.3028L18.7139 14.6972ZM18.548 16.0944C18.6336 16.5662 18.8585 17.0016 19.1939 17.3444L20.2661 16.2956C20.1404 16.167 20.056 16.0037 20.024 15.8268L18.548 16.0944ZM19.1997 17.3503L19.2597 17.4103L20.3203 16.3497L20.2603 16.2897L19.1997 17.3503ZM19.26 17.4106C19.3762 17.5267 19.4684 17.6646 19.5313 17.8163L20.9169 17.2419C20.7786 16.9081 20.5757 16.6048 20.32 16.3494L19.26 17.4106ZM19.5313 17.8163C19.5942 17.9681 19.6266 18.1307 19.6266 18.295H21.1266C21.1266 17.9336 21.0553 17.5758 20.9169 17.2419L19.5313 17.8163ZM19.6266 18.295C19.6266 18.4593 19.5942 18.6219 19.5313 18.7737L20.9169 19.3481C21.0553 19.0142 21.1266 18.6564 21.1266 18.295H19.6266ZM19.5313 18.7737C19.4684 18.9254 19.3762 19.0633 19.26 19.1794L20.32 20.2406C20.5757 19.9852 20.7786 19.6819 20.9169 19.3481L19.5313 18.7737ZM19.2594 19.18C19.1433 19.2962 19.0054 19.3884 18.8537 19.4513L19.4281 20.8369C19.7619 20.6986 20.0652 20.4957 20.3206 20.24L19.2594 19.18ZM18.8537 19.4513C18.7019 19.5142 18.5393 19.5466 18.375 19.5466V21.0466C18.7364 21.0466 19.0942 20.9753 19.4281 20.8369L18.8537 19.4513ZM18.375 19.5466C18.2107 19.5466 18.0481 19.5142 17.8963 19.4513L17.3219 20.8369C17.6558 20.9753 18.0136 21.0466 18.375 21.0466V19.5466ZM17.8963 19.4513C17.7446 19.3884 17.6067 19.2962 17.4906 19.18L16.4294 20.24C16.6848 20.4957 16.9881 20.6986 17.3219 20.8369L17.8963 19.4513ZM17.4903 19.1797L17.4303 19.1197L16.3697 20.1803L16.4297 20.2403L17.4903 19.1797ZM17.4244 19.1139C17.0816 18.7785 16.6462 18.5536 16.1744 18.468L15.9068 19.944C16.0837 19.976 16.247 20.0604 16.3756 20.1861L17.4244 19.1139ZM16.1744 18.468C15.7025 18.3825 15.2159 18.4402 14.7772 18.6339L15.3828 20.0061C15.5473 19.9335 15.7298 19.9119 15.9068 19.944L16.1744 18.468ZM14.7846 18.6306C14.3543 18.815 13.9874 19.1212 13.729 19.5114L14.9796 20.3396C15.0765 20.1933 15.2141 20.0785 15.3754 20.0094L14.7846 18.6306ZM13.729 19.5114C13.4706 19.9017 13.3319 20.359 13.33 20.827L14.83 20.833C14.8307 20.6575 14.8827 20.486 14.9796 20.3396L13.729 19.5114ZM13.33 20.83V21H14.83V20.83H13.33ZM13.33 21C13.33 21.3315 13.1983 21.6495 12.9639 21.8839L14.0245 22.9445C14.5403 22.4288 14.83 21.7293 14.83 21H13.33ZM12.9639 21.8839C12.7295 22.1183 12.4115 22.25 12.08 22.25V23.75C12.8093 23.75 13.5088 23.4603 14.0245 22.9445L12.9639 21.8839ZM12.08 22.25C11.7485 22.25 11.4305 22.1183 11.1961 21.8839L10.1355 22.9445C10.6512 23.4603 11.3507 23.75 12.08 23.75V22.25ZM11.1961 21.8839C10.9617 21.6495 10.83 21.3315 10.83 21H9.33C9.33 21.7293 9.61973 22.4288 10.1355 22.9445L11.1961 21.8839ZM10.83 21V20.91H9.33V21H10.83ZM10.8298 20.8925C10.8185 20.411 10.6627 19.9441 10.3825 19.5524L9.16248 20.425C9.26754 20.5719 9.32598 20.747 9.3302 20.9275L10.8298 20.8925ZM10.3825 19.5524C10.1024 19.1607 9.71087 18.8623 9.25889 18.6961L8.74111 20.1039C8.91061 20.1662 9.05742 20.2781 9.16248 20.425L10.3825 19.5524ZM9.30282 18.7139C8.86411 18.5202 8.37745 18.4625 7.9056 18.548L8.17322 20.024C8.35016 19.9919 8.53266 20.0135 8.69718 20.0861L9.30282 18.7139ZM7.9056 18.548C7.43376 18.6336 6.99836 18.8585 6.65555 19.1939L7.70445 20.2661C7.833 20.1404 7.99627 20.056 8.17322 20.024L7.9056 18.548ZM6.64966 19.1997L6.58966 19.2597L7.65034 20.3203L7.71034 20.2603L6.64966 19.1997ZM6.58938 19.26C6.47329 19.3762 6.33542 19.4684 6.18368 19.5313L6.75809 20.9169C7.09193 20.7786 7.39522 20.5757 7.65062 20.32L6.58938 19.26ZM6.18368 19.5313C6.03193 19.5942 5.86927 19.6266 5.705 19.6266V21.1266C6.06639 21.1266 6.42424 21.0553 6.75809 20.9169L6.18368 19.5313ZM5.705 19.6266C5.54073 19.6266 5.37807 19.5942 5.22632 19.5313L4.65191 20.9169C4.98576 21.0553 5.34361 21.1266 5.705 21.1266V19.6266ZM5.22632 19.5313C5.07457 19.4684 4.93671 19.3762 4.82063 19.26L3.75937 20.32C4.01478 20.5757 4.31807 20.7786 4.65191 20.9169L5.22632 19.5313ZM4.82003 19.2594C4.70382 19.1433 4.61162 19.0054 4.54871 18.8537L3.16305 19.4281C3.30144 19.7619 3.50428 20.0652 3.75996 20.3206L4.82003 19.2594ZM4.54871 18.8537C4.4858 18.7019 4.45343 18.5393 4.45343 18.375H2.95343C2.95343 18.7364 3.02466 19.0942 3.16305 19.4281L4.54871 18.8537ZM4.45343 18.375C4.45343 18.2107 4.4858 18.0481 4.54871 17.8963L3.16305 17.3219C3.02466 17.6558 2.95343 18.0136 2.95343 18.375H4.45343ZM4.54871 17.8963C4.61162 17.7446 4.70382 17.6067 4.82003 17.4906L3.75996 16.4294C3.50428 16.6848 3.30144 16.9881 3.16305 17.3219L4.54871 17.8963ZM4.82033 17.4903L4.88033 17.4303L3.81967 16.3697L3.75967 16.4297L4.82033 17.4903ZM4.88615 17.4244C5.22147 17.0816 5.44642 16.6462 5.53197 16.1744L4.05604 15.9068C4.02395 16.0837 3.9396 16.247 3.81385 16.3756L4.88615 17.4244ZM5.53197 16.1744C5.61753 15.7025 5.55977 15.2159 5.36615 14.7772L3.99385 15.3828C4.06646 15.5473 4.08812 15.7298 4.05604 15.9068L5.53197 16.1744ZM5.36935 14.7846C5.18497 14.3543 4.87882 13.9874 4.48858 13.729L3.66035 14.9796C3.80669 15.0765 3.9215 15.2141 3.99064 15.3754L5.36935 14.7846ZM4.48858 13.729C4.09834 13.4706 3.64104 13.3319 3.17299 13.33L3.16701 14.83C3.34253 14.8307 3.51401 14.8827 3.66035 14.9796L4.48858 13.729ZM3.17 13.33H3V14.83H3.17V13.33ZM3 13.33C2.66848 13.33 2.35054 13.1983 2.11612 12.9639L1.05546 14.0245C1.57118 14.5403 2.27065 14.83 3 14.83V13.33ZM2.11612 12.9639C1.8817 12.7295 1.75 12.4115 1.75 12.08H0.25C0.25 12.8093 0.539731 13.5088 1.05546 14.0245L2.11612 12.9639ZM1.75 12.08C1.75 11.7485 1.8817 11.4305 2.11612 11.1961L1.05546 10.1355C0.539731 10.6512 0.25 11.3507 0.25 12.08H1.75ZM2.11612 11.1961C2.35054 10.9617 2.66848 10.83 3 10.83V9.33C2.27065 9.33 1.57118 9.61973 1.05546 10.1355L2.11612 11.1961ZM3 10.83H3.09V9.33H3V10.83ZM3.10754 10.8298C3.58898 10.8185 4.05591 10.6627 4.44761 10.3825L3.57499 9.16248C3.4281 9.26754 3.253 9.32598 3.07246 9.3302L3.10754 10.8298ZM4.44761 10.3825C4.83931 10.1024 5.13767 9.71086 5.3039 9.25889L3.8961 8.74111C3.83376 8.91061 3.72188 9.05742 3.57499 9.16248L4.44761 10.3825ZM5.28615 9.30282C5.47977 8.86411 5.53753 8.37745 5.45197 7.9056L3.97604 8.17322C4.00812 8.35016 3.98646 8.53266 3.91385 8.69718L5.28615 9.30282ZM5.45197 7.9056C5.36642 7.43376 5.14147 6.99836 4.80615 6.65555L3.73385 7.70445C3.8596 7.833 3.94395 7.99628 3.97604 8.17322L5.45197 7.9056ZM4.80033 6.64967L4.74033 6.58967L3.67967 7.65033L3.73967 7.71033L4.80033 6.64967ZM4.74004 6.58938C4.62381 6.47328 4.53162 6.33542 4.46871 6.18368L3.08305 6.75809C3.22144 7.09193 3.42428 7.39522 3.67997 7.65062L4.74004 6.58938ZM4.46871 6.18368C4.4058 6.03193 4.37343 5.86927 4.37343 5.705H2.87343C2.87343 6.06639 2.94466 6.42424 3.08305 6.75809L4.46871 6.18368ZM4.37343 5.705C4.37343 5.54073 4.4058 5.37807 4.46871 5.22632L3.08305 4.65191C2.94466 4.98576 2.87343 5.34361 2.87343 5.705H4.37343ZM4.46871 5.22632C4.53162 5.07458 4.62381 4.93672 4.74004 4.82063L3.67997 3.75937C3.42428 4.01478 3.22144 4.31807 3.08305 4.65191L4.46871 5.22632ZM4.74063 4.82003C4.85672 4.70381 4.99458 4.61162 5.14632 4.54871L4.57191 3.16305C4.23807 3.30144 3.93478 3.50428 3.67937 3.75996L4.74063 4.82003ZM5.14632 4.54871C5.29807 4.4858 5.46073 4.45343 5.625 4.45343V2.95343C5.26361 2.95343 4.90576 3.02466 4.57191 3.16305L5.14632 4.54871ZM5.625 4.45343C5.78927 4.45343 5.95193 4.4858 6.10368 4.54871L6.67809 3.16305C6.34424 3.02466 5.98639 2.95343 5.625 2.95343V4.45343ZM6.10368 4.54871C6.25542 4.61162 6.39328 4.70381 6.50938 4.82003L7.57062 3.75996C7.31522 3.50428 7.01193 3.30144 6.67809 3.16305L6.10368 4.54871ZM6.50967 4.82033L6.56967 4.88033L7.63033 3.81967L7.57033 3.75967L6.50967 4.82033ZM6.57555 4.88615C6.91836 5.22147 7.35376 5.44642 7.8256 5.53197L8.09322 4.05604C7.91628 4.02395 7.753 3.9396 7.62445 3.81385L6.57555 4.88615ZM7.8256 5.53197C8.29745 5.61753 8.78411 5.55977 9.22282 5.36615L8.61718 3.99385C8.45266 4.06646 8.27016 4.08812 8.09322 4.05604L7.8256 5.53197ZM8.92 5.43H9V3.93H8.92V5.43ZM9.29545 5.36935C9.72566 5.18497 10.0926 4.87882 10.351 4.48858L9.10038 3.66035C9.00347 3.80669 8.86588 3.9215 8.70455 3.99064L9.29545 5.36935ZM10.351 4.48858C10.6094 4.09834 10.7481 3.64104 10.75 3.17299L9.25001 3.16701C9.24931 3.34253 9.1973 3.51401 9.10038 3.66035L10.351 4.48858ZM10.75 3.17V3H9.25V3.17H10.75ZM10.75 3C10.75 2.66848 10.8817 2.35054 11.1161 2.11612L10.0555 1.05546C9.53973 1.57118 9.25 2.27065 9.25 3H10.75ZM11.1161 2.11612C11.3505 1.8817 11.6685 1.75 12 1.75V0.25C11.2707 0.25 10.5712 0.539731 10.0555 1.05546L11.1161 2.11612ZM12 1.75C12.3315 1.75 12.6495 1.8817 12.8839 2.11612L13.9445 1.05546C13.4288 0.539731 12.7293 0.25 12 0.25V1.75ZM12.8839 2.11612C13.1183 2.35054 13.25 2.66848 13.25 3H14.75C14.75 2.27065 14.4603 1.57118 13.9445 1.05546L12.8839 2.11612ZM13.25 3V3.09H14.75V3H13.25ZM13.25 3.09299C13.2519 3.56104 13.3906 4.01834 13.649 4.40858L14.8996 3.58035C14.8027 3.43401 14.7507 3.26253 14.75 3.08701L13.25 3.09299ZM13.649 4.40858C13.9074 4.79882 14.2743 5.10497 14.7046 5.28935L15.2954 3.91065C15.1341 3.8415 14.9965 3.72669 14.8996 3.58035L13.649 4.40858ZM14.6972 5.28615C15.1359 5.47977 15.6225 5.53753 16.0944 5.45197L15.8268 3.97604C15.6498 4.00812 15.4673 3.98646 15.3028 3.91385L14.6972 5.28615ZM16.0944 5.45197C16.5662 5.36642 17.0016 5.14147 17.3444 4.80615L16.2956 3.73385C16.167 3.8596 16.0037 3.94395 15.8268 3.97604L16.0944 5.45197ZM17.3503 4.80033L17.4103 4.74033L16.3497 3.67967L16.2897 3.73967L17.3503 4.80033ZM17.4106 4.74004C17.5267 4.62382 17.6646 4.53162 17.8163 4.46871L17.2419 3.08305C16.9081 3.22144 16.6048 3.42428 16.3494 3.67997L17.4106 4.74004ZM17.8163 4.46871C17.9681 4.4058 18.1307 4.37343 18.295 4.37343V2.87343C17.9336 2.87343 17.5758 2.94466 17.2419 3.08305L17.8163 4.46871ZM18.295 4.37343C18.4593 4.37343 18.6219 4.4058 18.7737 4.46871L19.3481 3.08305C19.0142 2.94466 18.6564 2.87343 18.295 2.87343V4.37343ZM18.7737 4.46871C18.9254 4.53162 19.0633 4.62381 19.1794 4.74004L20.2406 3.67997C19.9852 3.42428 19.6819 3.22144 19.3481 3.08305L18.7737 4.46871ZM19.18 4.74063C19.2962 4.85672 19.3884 4.99458 19.4513 5.14632L20.8369 4.57191C20.6986 4.23807 20.4957 3.93478 20.24 3.67937L19.18 4.74063ZM19.4513 5.14632C19.5142 5.29807 19.5466 5.46073 19.5466 5.625H21.0466C21.0466 5.26361 20.9753 4.90576 20.8369 4.57191L19.4513 5.14632ZM19.5466 5.625C19.5466 5.78927 19.5142 5.95193 19.4513 6.10368L20.8369 6.67809C20.9753 6.34424 21.0466 5.98639 21.0466 5.625H19.5466ZM19.4513 6.10368C19.3884 6.25542 19.2962 6.39328 19.18 6.50938L20.24 7.57062C20.4957 7.31522 20.6986 7.01193 20.8369 6.67809L19.4513 6.10368ZM19.1797 6.50967L19.1197 6.56967L20.1803 7.63033L20.2403 7.57033L19.1797 6.50967ZM19.1139 6.57555C18.7785 6.91836 18.5536 7.35376 18.468 7.8256L19.944 8.09322C19.976 7.91627 20.0604 7.753 20.1861 7.62445L19.1139 6.57555ZM18.468 7.8256C18.3825 8.29745 18.4402 8.78411 18.6339 9.22282L20.0061 8.61718C19.9335 8.45266 19.9119 8.27016 19.944 8.09322L18.468 7.8256ZM18.57 8.92V9H20.07V8.92H18.57ZM18.6306 9.29545C18.815 9.72566 19.1212 10.0926 19.5114 10.351L20.3396 9.10038C20.1933 9.00347 20.0785 8.86588 20.0094 8.70455L18.6306 9.29545ZM19.5114 10.351C19.9017 10.6094 20.359 10.7481 20.827 10.75L20.833 9.25001C20.6575 9.24931 20.486 9.1973 20.3396 9.10038L19.5114 10.351ZM20.83 10.75H21V9.25H20.83V10.75ZM21 10.75C21.3315 10.75 21.6495 10.8817 21.8839 11.1161L22.9445 10.0555C22.4288 9.53973 21.7293 9.25 21 9.25V10.75ZM21.8839 11.1161C22.1183 11.3505 22.25 11.6685 22.25 12H23.75C23.75 11.2707 23.4603 10.5712 22.9445 10.0555L21.8839 11.1161ZM22.25 12C22.25 12.3315 22.1183 12.6495 21.8839 12.8839L22.9445 13.9445C23.4603 13.4288 23.75 12.7293 23.75 12H22.25ZM21.8839 12.8839C21.6495 13.1183 21.3315 13.25 21 13.25V14.75C21.7293 14.75 22.4288 14.4603 22.9445 13.9445L21.8839 12.8839ZM21 13.25H20.91V14.75H21V13.25ZM20.907 13.25C20.439 13.2519 19.9817 13.3906 19.5914 13.649L20.4196 14.8996C20.566 14.8027 20.7375 14.7507 20.913 14.75L20.907 13.25ZM19.5914 13.649C19.2012 13.9074 18.895 14.2743 18.7106 14.7046L20.0894 15.2954C20.1585 15.1341 20.2733 14.9965 20.4196 14.8996L19.5914 13.649Z" fill="currentColor"/>
</g>
</g>
<defs>
<clipPath id="clip0_468_10701">
<rect width="24" height="24" fill="currentColor"/>
</clipPath>
<clipPath id="clip1_468_10701">
<rect width="24" height="24" fill="currentColor"/>
</clipPath>
</defs>
</svg>
